<?xml version="1.0" encoding="utf-8"?>
<!-- Generator: Adobe Illustrator 24.0.3, SVG Export Plug-In . SVG Version: 6.00 Build 0)  -->
<svg version="1.1" id="Capa_1" xmlns="http://www.w3.org/2000/svg" xmlns:xlink="http://www.w3.org/1999/xlink" x="0px" y="0px"
	 viewBox="0 0 512 512" style="enable-background:new 0 0 512 512;" xml:space="preserve">
<style type="text/css">
	.st0{fill:#FFFFFF;}
</style>
<g>
	<g>
		<path class="st0" d="M256,150c-58.4,0-106,47.6-106,106s47.6,106,106,106s106-47.6,106-106S314.4,150,256,150z M256,332
			c-41.9,0-76-34.1-76-76s34.1-76,76-76s76,34.1,76,76S297.9,332,256,332z"/>
	</g>
</g>
<g>
	<g>
		<circle class="st0" cx="256" cy="256" r="15"/>
	</g>
</g>
<g>
	<g>
		<path class="st0" d="M481.5,241L481.5,241c-3.6-54.7-26.6-105.7-65.7-144.8C376.7,57.1,325.7,34.1,271,30.5V0h-30v30.5
			c-54.7,3.6-105.7,26.6-144.8,65.7C57.1,135.3,34.1,186.3,30.5,241H0v30h30.5c3.6,54.7,26.6,105.7,65.7,144.8
			c39.1,39.1,90.1,62.1,144.8,65.7V512h30v-30.5c54.7-3.6,105.7-26.6,144.8-65.7c39.1-39.1,62.1-90.1,65.7-144.8H512v-30L481.5,241
			L481.5,241z M451.4,271c-7.3,96.1-84.3,173.1-180.4,180.4V392h-30v59.4C144.9,444.1,67.9,367.1,60.6,271H120v-30H60.6
			C67.9,144.9,144.9,67.9,241,60.6V120h30V60.6c96.1,7.3,173.1,84.3,180.4,180.4H392v30H451.4z"/>
	</g>
</g>
</svg>
