<?xml version="1.0" encoding="utf-8"?>
<!-- Generator: Adobe Illustrator 24.0.3, SVG Export Plug-In . SVG Version: 6.00 Build 0)  -->
<svg version="1.1" id="Layer_1" xmlns="http://www.w3.org/2000/svg" xmlns:xlink="http://www.w3.org/1999/xlink" x="0px" y="0px"
	 viewBox="0 0 512 512" style="enable-background:new 0 0 512 512;" xml:space="preserve">
<style type="text/css">
	.st0{fill:#838D91;}
	.st1{fill:#F0916E;}
</style>
<g id="XMLID_1_">
	<g>
		<path class="st0" d="M449.3,92.9c21.1,22.8,32.7,54.4,32.7,89c0,36.4-13.5,69-43.9,105.6c-29.3,35.4-73,72.6-123.5,115.6
			c-17.7,15.1-37.7,32.2-58.7,50.4c-20.8-18.2-40.9-35.3-58.5-50.3l-0.1-0.1c-50.5-43.1-94.2-80.2-123.5-115.6
			C43.5,250.9,30,218.3,30,181.9c0-34.5,11.6-66.1,32.7-89C83.4,70.4,112,58,143,58c22.8,0,43.6,7.2,62.1,21.5
			c16.4,12.7,27.9,28.8,34.6,40.1c3.4,5.8,9.5,9.2,16.3,9.2c6.7,0,12.8-3.5,16.3-9.2c6.7-11.2,18.2-27.3,34.6-40.1
			C325.3,65.2,346.2,58,369,58C400,58,428.6,70.4,449.3,92.9z"/>
		<path class="st1" d="M471.4,72.6C497.6,101,512,139.8,512,181.9c0,43.3-16.1,82.9-50.8,124.7c-31,37.4-75.5,75.4-127.1,119.3
			c-17.6,15-37.6,32-58.3,50.2c-5.5,4.8-12.5,7.4-19.8,7.4c-7.3,0-14.3-2.6-19.8-7.4C215.5,458,195.6,441,178,426l-0.1-0.1
			C126.3,382,81.8,344,50.8,306.6C16.1,264.8,0,225.2,0,181.9C0,139.8,14.4,101,40.6,72.6C67.1,43.8,103.5,28,143,28
			c29.6,0,56.6,9.3,80.4,27.8c12,9.3,22.9,20.7,32.5,34c9.6-13.3,20.5-24.7,32.5-34C312.4,37.3,339.4,28,369,28
			C408.5,28,444.9,43.8,471.4,72.6z M482,181.9c0-34.5-11.6-66.1-32.7-89C428.6,70.4,400,58,369,58c-22.8,0-43.6,7.2-62.1,21.5
			c-16.4,12.7-27.9,28.8-34.6,40.1c-3.5,5.8-9.5,9.2-16.3,9.2c-6.7,0-12.8-3.5-16.3-9.2c-6.7-11.2-18.2-27.3-34.6-40.1
			C186.7,65.2,165.8,58,143,58C112,58,83.4,70.4,62.7,92.9c-21.1,22.8-32.7,54.4-32.7,89c0,36.4,13.5,69,43.9,105.6
			c29.3,35.4,73,72.6,123.5,115.6l0.1,0.1c17.7,15.1,37.7,32.1,58.5,50.3c21-18.2,41-35.3,58.7-50.4c50.5-43,94.1-80.2,123.5-115.6
			C468.5,250.9,482,218.3,482,181.9z"/>
	</g>
	<g>
	</g>
</g>
</svg>
