<?xml version="1.0" encoding="utf-8"?>
<!-- Generator: Adobe Illustrator 24.0.3, SVG Export Plug-In . SVG Version: 6.00 Build 0)  -->
<svg version="1.1" id="Layer_1" xmlns="http://www.w3.org/2000/svg" xmlns:xlink="http://www.w3.org/1999/xlink" x="0px" y="0px"
	 viewBox="0 0 512 512" style="enable-background:new 0 0 512 512;" xml:space="preserve">
<style type="text/css">
	.st0{fill:#FFFFFF;}
</style>
<path class="st0" d="M428.3,319.3c21.4-32.5,33.9-71.4,33.9-113.1C462.2,92.5,369.7,0,256,0S49.8,92.5,49.8,206.2
	c0,41.7,12.5,80.6,33.9,113.1L3,436.9l92.3-17.2l17.2,92.3l76.1-110.9c21.1,7.3,43.8,11.3,67.4,11.3c23.6,0,46.3-4,67.4-11.3
	L399.5,512l17.2-92.3l92.3,17.2L428.3,319.3z M128.8,434.9l-9.4-50.3l-50.3,9.4l34-49.5c16.3,18,35.7,33.1,57.3,44.5L128.8,434.9z
	 M80,206.2c0-97.1,79-176,176-176c97.1,0,176,79,176,176c0,97.1-79,176-176,176C158.9,382.2,80,303.3,80,206.2z M392.6,384.5
	l-9.4,50.3l-31.6-46c21.6-11.4,41-26.5,57.3-44.5l34,49.5L392.6,384.5z"/>
<path class="st0" d="M219.2,251.5l-49.1-49.1l-21.3,21.3l70.4,70.4l143.9-143.9l-21.3-21.3L219.2,251.5z"/>
</svg>
