<svg height="512pt" viewBox="0 0 512 512" width="512pt" xmlns="http://www.w3.org/2000/svg"><path d="m512 412c0 11.046875-8.953125 20-20 20h-60v60c0 11.046875-8.953125 20-20 20s-20-8.953125-20-20v-60h-60c-11.046875 0-20-8.953125-20-20s8.953125-20 20-20h60v-60c0-11.046875 8.953125-20 20-20s20 8.953125 20 20v60h60c11.046875 0 20 8.953125 20 20zm-160 80c0 11.046875-8.953125 20-20 20h-272c-33.085938 0-60-26.914062-60-60v-37c0-34.515625 14.804688-67.3125 40.613281-89.988281 20.894531-18.363281 60.910157-45.578125 125.238281-59.722657-35.15625-27.082031-57.851562-69.582031-57.851562-117.289062 0-81.605469 66.394531-148 148-148s148 66.394531 148 148-66.394531 148-148 148c-109.902344 0-168.777344 41.300781-188.984375 59.058594-17.167969 15.085937-27.015625 36.929687-27.015625 59.941406v37c0 11.027344 8.972656 20 20 20h272c11.046875 0 20 8.953125 20 20zm-96-236c59.550781 0 108-48.449219 108-108s-48.449219-108-108-108-108 48.449219-108 108 48.449219 108 108 108zm0 0"/></svg>