<?xml version="1.0" encoding="utf-8"?>
<!-- Generator: Adobe Illustrator 24.0.3, SVG Export Plug-In . SVG Version: 6.00 Build 0)  -->
<svg version="1.1" id="Layer_1" xmlns="http://www.w3.org/2000/svg" xmlns:xlink="http://www.w3.org/1999/xlink" x="0px" y="0px"
	 viewBox="0 0 73.7 71.3" style="enable-background:new 0 0 73.7 71.3;" xml:space="preserve">
<style type="text/css">
	.st0{fill:#FFFFFF;}
</style>
<circle class="st0" cx="28.7" cy="14" r="3.7"/>
<circle class="st0" cx="43.4" cy="14" r="3.7"/>
<circle class="st0" cx="28.5" cy="28.4" r="5.8"/>
<circle class="st0" cx="43.2" cy="28.4" r="5.8"/>
<g>
	<circle class="st0" cx="28.7" cy="2.6" r="1.7"/>
	<path class="st0" d="M28.7,4.5c-1,0-1.9-0.8-1.9-1.9s0.8-1.9,1.9-1.9s1.9,0.8,1.9,1.9S29.8,4.5,28.7,4.5z M28.7,1
		c-0.9,0-1.6,0.7-1.6,1.6s0.7,1.6,1.6,1.6s1.6-0.7,1.6-1.6C30.3,1.7,29.6,1,28.7,1z"/>
</g>
<g>
	<circle class="st0" cx="43.4" cy="2.6" r="1.7"/>
	<path class="st0" d="M43.4,4.5c-1,0-1.9-0.8-1.9-1.9s0.8-1.9,1.9-1.9s1.9,0.8,1.9,1.9S44.4,4.5,43.4,4.5z M43.4,1
		c-0.9,0-1.6,0.7-1.6,1.6s0.7,1.6,1.6,1.6c0.9,0,1.6-0.7,1.6-1.6S44.3,1,43.4,1z"/>
</g>
<circle class="st0" cx="28" cy="42.7" r="5.8"/>
<circle class="st0" cx="42.7" cy="42.7" r="5.8"/>
<circle class="st0" cx="28.3" cy="57.1" r="3.7"/>
<circle class="st0" cx="42.9" cy="57.1" r="3.7"/>
<circle class="st0" cx="27.8" cy="68.4" r="1.7"/>
<circle class="st0" cx="42.4" cy="68.4" r="1.7"/>
<circle class="st0" cx="14.1" cy="14" r="4.7"/>
<circle class="st0" cx="2.4" cy="28.4" r="1.7"/>
<circle class="st0" cx="14.1" cy="28.4" r="3.7"/>
<circle class="st0" cx="2.4" cy="42.7" r="1.7"/>
<circle class="st0" cx="14.1" cy="42.7" r="3.7"/>
<circle class="st0" cx="14.1" cy="57.1" r="4.7"/>
<circle class="st0" cx="58.1" cy="57.4" r="4.7"/>
<circle class="st0" cx="58.3" cy="28.7" r="3.7"/>
<circle class="st0" cx="57.8" cy="43" r="3.7"/>
<circle class="st0" cx="58.1" cy="14.3" r="4.7"/>
<circle class="st0" cx="70.9" cy="28.6" r="1.7"/>
<circle class="st0" cx="70.4" cy="42.9" r="1.7"/>
</svg>
