<?xml version="1.0" encoding="utf-8"?>
<!-- Generator: Adobe Illustrator 24.0.3, SVG Export Plug-In . SVG Version: 6.00 Build 0)  -->
<svg version="1.1" id="Capa_1" xmlns="http://www.w3.org/2000/svg" xmlns:xlink="http://www.w3.org/1999/xlink" x="0px" y="0px"
	 viewBox="0 0 477.9 477.9" style="enable-background:new 0 0 477.9 477.9;" xml:space="preserve">
<style type="text/css">
	.st0{fill:#4E50B8;}
</style>
<g>
	<g>
		<path class="st0" d="M460.8,221.9H185.3c-9.3-36.4-46.2-58.3-82.6-49.1c-24.1,6.1-42.9,25-49.1,49.1H17.1
			c-9.4,0-17.1,7.6-17.1,17.1S7.6,256,17.1,256h36.6c9.3,36.4,46.2,58.3,82.6,49.1c24.1-6.1,42.9-25,49.1-49.1h275.5
			c9.4,0,17.1-7.6,17.1-17.1S470.2,221.9,460.8,221.9z"/>
	</g>
</g>
<g>
	<g>
		<path class="st0" d="M460.8,51.2h-53.6c-9.3-36.4-46.2-58.3-82.6-49.1c-24.1,6.1-42.9,25-49.1,49.1H17.1C7.6,51.2,0,58.8,0,68.3
			s7.6,17.1,17.1,17.1h258.4c9.3,36.4,46.2,58.3,82.6,49.1c24.1-6.1,42.9-25,49.1-49.1h53.6c9.4,0,17.1-7.6,17.1-17.1
			S470.2,51.2,460.8,51.2z"/>
	</g>
</g>
<g>
	<g>
		<path class="st0" d="M460.8,392.5H373c-9.3-36.4-46.2-58.3-82.6-49.1c-24.1,6.1-42.9,25-49.1,49.1H17.1c-9.4,0-17.1,7.6-17.1,17.1
			s7.6,17.1,17.1,17.1h224.3c9.3,36.4,46.2,58.3,82.6,49.1c24.1-6.1,42.9-25,49.1-49.1h87.8c9.4,0,17.1-7.6,17.1-17.1
			S470.2,392.5,460.8,392.5z"/>
	</g>
</g>
</svg>
