<svg height="512pt" viewBox="0 -30 512 512" width="512pt" xmlns="http://www.w3.org/2000/svg"><path d="m505.109375 268.628906-66.953125-43.039062 66.953125-43.042969c4.292969-2.761719 6.890625-7.515625 6.890625-12.617187 0-5.105469-2.59375-9.859376-6.890625-12.621094l-241-154.925782c-4.9375-3.175781-11.28125-3.175781-16.222656 0l-241 154.925782c-4.292969 2.761718-6.886719 7.515625-6.886719 12.621094 0 5.101562 2.59375 9.855468 6.890625 12.617187l66.953125 43.042969-66.953125 43.039062c-4.296875 2.761719-6.890625 7.515625-6.890625 12.617188 0 5.105468 2.59375 9.859375 6.890625 12.617187l241 154.929688c2.46875 1.589843 5.289063 2.382812 8.109375 2.382812s5.640625-.792969 8.109375-2.382812l241-154.929688c4.292969-2.757812 6.890625-7.511719 6.890625-12.617187 0-5.101563-2.59375-9.855469-6.890625-12.617188zm-249.109375-235.796875 213.261719 137.097657-213.261719 137.09375-213.261719-137.09375zm0 385.511719-213.261719-137.097656 58.84375-37.828125 146.308594 94.054687c2.46875 1.589844 5.289063 2.382813 8.109375 2.382813s5.640625-.792969 8.109375-2.382813l146.308594-94.054687 58.84375 37.828125zm0 0"/></svg>