<?xml version="1.0" encoding="utf-8"?>
<!-- Generator: Adobe Illustrator 24.0.3, SVG Export Plug-In . SVG Version: 6.00 Build 0)  -->
<svg version="1.1" id="Capa_1" xmlns="http://www.w3.org/2000/svg" xmlns:xlink="http://www.w3.org/1999/xlink" x="0px" y="0px"
	 viewBox="0 0 512 512" style="enable-background:new 0 0 512 512;" xml:space="preserve">
<style type="text/css">
	.st0{fill:#1D1D1B;stroke:#000000;stroke-miterlimit:10;}
	.st1{fill:#FFFFFF;stroke:#000000;stroke-miterlimit:10;}
</style>
<g>
	<g>
		<path d="M506.1,477.9L354.8,326.5C383,292,400,248,400,200C400,89.7,310.3,0,200,0S0,89.7,0,200s89.7,200,200,200
			c48,0,92-17,126.5-45.2l151.4,151.4c7.8,7.8,20.5,7.8,28.3,0C514,498.3,514,485.7,506.1,477.9z M200,360c-88.2,0-160-71.8-160-160
			S111.8,40,200,40c88.2,0,160,71.8,160,160S288.2,360,200,360z"/>
	</g>
</g>
<circle class="st0" cx="200" cy="200" r="127"/>
<circle class="st1" cx="200" cy="200" r="95"/>
</svg>
