<?xml version="1.0" encoding="iso-8859-1"?>
<!-- Generator: Adobe Illustrator 19.0.0, SVG Export Plug-In . SVG Version: 6.00 Build 0)  -->
<svg version="1.1" id="Capa_1" xmlns="http://www.w3.org/2000/svg" xmlns:xlink="http://www.w3.org/1999/xlink" x="0px" y="0px"
	 viewBox="0 0 512 512" style="enable-background:new 0 0 512 512;" xml:space="preserve">
<g>
	<g>
		<path d="M506.143,477.858L354.789,326.505C383.03,292.013,400,247.953,400,200C400,89.72,310.28,0,200,0S0,89.72,0,200
			s89.72,200,200,200c47.953,0,92.012-16.97,126.504-45.211l151.353,151.353c7.81,7.81,20.474,7.811,28.285,0
			C513.953,498.332,513.953,485.669,506.143,477.858z M200,360c-88.224,0-160-71.776-160-160S111.776,40,200,40
			c88.225,0,160,71.776,160,160S288.225,360,200,360z"/>
	</g>
</g>
<g>
</g>
<g>
</g>
<g>
</g>
<g>
</g>
<g>
</g>
<g>
</g>
<g>
</g>
<g>
</g>
<g>
</g>
<g>
</g>
<g>
</g>
<g>
</g>
<g>
</g>
<g>
</g>
<g>
</g>
</svg>
